PathFileType	4	(X/Y/Z)	/Users/itak/Documents/Research/Walk-IL/dataset/trc/00102_00007.trc
DataRate	CameraRate	NumFrames	NumMarkers	Units	OrigDataRate	OrigDataStartFrame	OrigNumFrames
100.000000	100.000000	4	53	mm	100.000000	0	565
Frame#	Time	RPSI			LPSI			L3			STRN			T10			C7			CLAV			RBAK			LBAK			LSHO			LUPA			LAEL			LAOL			LWTS			LWPS			LFRA			LIFD			LHPS			LHTS			RSHO			RUPA			RAEL			RAOL			RWTS			RWPS			RFRA			RIFD			RHTS			RHPS			RBHD			LFHD			RFHD			LBHD			LHIP			RHIP			RASI			LASI			LKNE			LTHI			LANK			LTIP			LTOE			LMT1			LMT5			LHEE			RKNE			RTHI			RANK			RTIP			RTOE			RMT1			RMT5			RHEE			
		X1	Y1	Z1	X2	Y2	Z2	X3	Y3	Z3	X4	Y4	Z4	X5	Y5	Z5	X6	Y6	Z6	X7	Y7	Z7	X8	Y8	Z8	X9	Y9	Z9	X10	Y10	Z10	X11	Y11	Z11	X12	Y12	Z12	X13	Y13	Z13	X14	Y14	Z14	X15	Y15	Z15	X16	Y16	Z16	X17	Y17	Z17	X18	Y18	Z18	X19	Y19	Z19	X20	Y20	Z20	X21	Y21	Z21	X22	Y22	Z22	X23	Y23	Z23	X24	Y24	Z24	X25	Y25	Z25	X26	Y26	Z26	X27	Y27	Z27	X28	Y28	Z28	X29	Y29	Z29	X30	Y30	Z30	X31	Y31	Z31	X32	Y32	Z32	X33	Y33	Z33	X34	Y34	Z34	X35	Y35	Z35	X36	Y36	Z36	X37	Y37	Z37	X38	Y38	Z38	X39	Y39	Z39	X40	Y40	Z40	X41	Y41	Z41	X42	Y42	Z42	X43	Y43	Z43	X44	Y44	Z44	X45	Y45	Z45	X46	Y46	Z46	X47	Y47	Z47	X48	Y48	Z48	X49	Y49	Z49	X50	Y50	Z50	X51	Y51	Z51	X52	Y52	Z52	X53	Y53	Z53	

1	0	-1897.236694335938	1127.010986328125	-270.2819213867188	-1890.635131835938	1127.467651367188	-404.5471801757812	-1900.501220703125	1159.042602539062	-340.2593383789062	-1684.70458984375	1360.808471679688	-331.1699523925781	-1940.52001953125	1309.12939453125	-343.88525390625	-1903.916625976562	1600.817138671875	-356.2056884765625	-1720.624877929688	1495.855346679688	-336.957763671875	-1963.792236328125	1418.1572265625	-271.2266540527344	-1906.013549804688	1580.699096679688	-458.0671691894531	-1815.667358398438	1567.844848632812	-521.6963500976562	-1829.04052734375	1434.53515625	-590.7242431640625	-1805.811401367188	1214.233276367188	-605.5027465820312	-1876.576049804688	1201.19384765625	-554.967041015625	-1703.718994140625	961.2643432617188	-546.4152221679688	-1781.475219726562	932.63818359375	-579.4664916992188	-1786.225341796875	1098.967529296875	-604.5025024414062	-1688.737548828125	769.8350219726562	-515.8679809570312	-1749.4833984375	858.5284423828125	-575.1673583984375	-1684.258911132812	872.1114501953125	-553.1136474609375	-1859.658569335938	1584.651611328125	-172.1338653564453	-1879.238403320312	1510.94189453125	-109.0458374023438	-1882.412109375	1215.387084960938	-86.78961944580078	-1886.059692382812	1213.988891601562	-184.5021362304688	-1729.753051757812	976.68701171875	-96.42922210693359	-1806.1826171875	957.7743530273438	-67.21989440917969	-1857.87646484375	1142.768920898438	-70.68650817871094	-1700.270385742188	782.0004272460938	-112.3999328613281	-1698.0009765625	868.3399047851562	-89.51319885253906	-1766.26904296875	859.2579345703125	-61.97774505615234	-1872.359375	1771.045532226562	-272.2997131347656	-1720.844360351562	1844.70654296875	-415.94970703125	-1713.588256835938	1852.154418945312	-286.6473693847656	-1885.89404296875	1766.16015625	-406.4227294921875	-1795.548950195312	1036.090209960938	-506.0864868164062	-1777.59033203125	1031.1328125	-147.0022583007812	-1692.588745117188	1103.8388671875	-195.7716522216797	-1688.473876953125	1100.843139648438	-462.0172119140625	-1782.260375976562	534.57373046875	-467.9970092773438	-1798.526123046875	680.7704467773438	-497.9725646972656	-1904.20166015625	37.15742874145508	-454.4787292480469	-1887.943237304688	289.7102966308594	-491.9511108398438	-1674.215942382812	36.83955383300781	-391.0154724121094	-1756.756469726562	40.12563705444336	-359.6568298339844	-1778.45947265625	33.58904647827148	-477.4712219238281	-1974.320556640625	37.46274185180664	-392.740478515625	-1793.480834960938	538.5399780273438	-177.5453491210938	-1761.522094726562	817.4053955078125	-151.7232360839844	-1894.808837890625	28.55617713928223	-194.4256134033203	-1822.055419921875	406.9581909179688	-166.7383422851562	-1662.30712890625	40.90417098999023	-244.5091705322266	-1722.455810546875	31.69461631774902	-287.70068359375	-1761.82275390625	36.41154098510742	-171.0159149169922	-1950.99609375	32.56211090087891	-242.9830169677734	
2	0.01	-1897.16015625	1127.01220703125	-270.2868957519531	-1890.590942382812	1127.459350585938	-404.5592956542969	-1900.455078125	1159.039428710938	-340.2864379882812	-1684.688354492188	1360.796752929688	-331.2113647460938	-1940.456420898438	1309.104248046875	-343.9013366699219	-1903.891967773438	1600.798706054688	-356.2374267578125	-1720.57568359375	1495.850830078125	-337.0125122070312	-1963.745361328125	1418.146362304688	-271.2642822265625	-1906.01025390625	1580.669555664062	-458.0971069335938	-1815.6640625	1567.827026367188	-521.7352294921875	-1829.048583984375	1434.51708984375	-590.7520751953125	-1805.82275390625	1214.210083007812	-605.5304565429688	-1876.56591796875	1201.16845703125	-554.9724731445312	-1703.697265625	961.2461547851562	-546.4466552734375	-1781.455078125	932.6093139648438	-579.4746704101562	-1786.226684570312	1098.942016601562	-604.5269775390625	-1688.851684570312	769.7201538085938	-515.9876708984375	-1749.46044921875	858.4954833984375	-575.1830444335938	-1684.247192382812	872.094482421875	-553.149658203125	-1859.613891601562	1584.6552734375	-172.1747589111328	-1879.172485351562	1510.936767578125	-109.0879898071289	-1882.344848632812	1215.381103515625	-86.79975891113281	-1885.987548828125	1213.988037109375	-184.50439453125	-1729.647705078125	976.7057495117188	-96.41956329345703	-1806.018798828125	957.756591796875	-67.23818206787109	-1857.828125	1142.782958984375	-70.69127655029297	-1700.146118164062	782.0433959960938	-112.3657684326172	-1697.866821289062	868.3723754882812	-89.48596954345703	-1766.17578125	859.2670288085938	-61.97222518920898	-1872.37158203125	1771.033569335938	-272.3438720703125	-1720.914428710938	1844.718505859375	-416.0385437011719	-1713.630493164062	1852.1845703125	-286.7528076171875	-1885.92626953125	1766.104248046875	-406.4567260742188	-1795.491821289062	1036.08056640625	-506.0978698730469	-1777.546142578125	1031.1201171875	-147.0105590820312	-1692.5322265625	1103.838012695312	-195.7981262207031	-1688.408935546875	1100.838745117188	-462.0377197265625	-1782.269165039062	534.5733642578125	-468.0110778808594	-1798.513061523438	680.7669067382812	-497.9818115234375	-1904.203491210938	37.15668106079102	-454.4796752929688	-1887.936279296875	289.7040405273438	-491.9543762207031	-1674.216796875	36.83924865722656	-391.0165710449219	-1756.761352539062	40.12422943115234	-359.6643371582031	-1778.462646484375	33.58949279785156	-477.472900390625	-1974.321044921875	37.46324157714844	-392.7407531738281	-1793.433837890625	538.533203125	-177.5573120117188	-1761.461303710938	817.4034423828125	-151.7451782226562	-1894.805786132812	28.55131149291992	-194.425048828125	-1822.034790039062	406.9590148925781	-166.7424163818359	-1662.306884765625	40.9050407409668	-244.5099487304688	-1722.455932617188	31.69217681884766	-287.7005615234375	-1761.824462890625	36.4110221862793	-171.0169830322266	-1950.997192382812	32.56170272827148	-242.9814605712891	
3	0.02	-1897.059204101562	1127.014526367188	-270.2931213378906	-1890.534912109375	1127.448852539062	-404.5772399902344	-1900.3994140625	1159.035278320312	-340.3247985839844	-1684.665771484375	1360.781860351562	-331.2669677734375	-1940.372192382812	1309.070678710938	-343.9235534667969	-1903.862182617188	1600.775634765625	-356.2825622558594	-1720.512817382812	1495.844482421875	-337.0853576660156	-1963.683349609375	1418.130249023438	-271.3129577636719	-1906.005615234375	1580.629272460938	-458.1388854980469	-1815.659545898438	1567.802978515625	-521.7884521484375	-1829.060302734375	1434.492065429688	-590.790771484375	-1805.8359375	1214.17822265625	-605.5679321289062	-1876.552612304688	1201.134399414062	-554.9818725585938	-1703.66845703125	961.2222290039062	-546.4918212890625	-1781.42919921875	932.5704345703125	-579.4878540039062	-1786.228637695312	1098.908447265625	-604.5609741210938	-1688.998901367188	769.57080078125	-516.14404296875	-1749.438598632812	858.4542846679688	-575.2077026367188	-1684.232299804688	872.0703735351562	-553.2005004882812	-1859.555908203125	1584.659545898438	-172.2296752929688	-1879.087890625	1510.931518554688	-109.146369934082	-1882.256591796875	1215.375	-86.81459045410156	-1885.892822265625	1213.986694335938	-184.5079193115234	-1729.507080078125	976.7327270507812	-96.40376281738281	-1805.811401367188	957.739013671875	-67.25591278076172	-1857.76220703125	1142.802856445312	-70.69806671142578	-1699.979736328125	782.099609375	-112.3186798095703	-1697.693481445312	868.41455078125	-89.45075988769531	-1766.057250976562	859.28125	-61.96063995361328	-1872.389526367188	1771.015747070312	-272.4027099609375	-1721.004760742188	1844.733642578125	-416.1529846191406	-1713.687744140625	1852.224975585938	-286.8860778808594	-1885.969970703125	1766.031616210938	-406.50048828125	-1795.418334960938	1036.0673828125	-506.1127624511719	-1777.485473632812	1031.103881835938	-147.0225830078125	-1692.455688476562	1103.836669921875	-195.8348693847656	-1688.3271484375	1100.832275390625	-462.0650024414062	-1782.281127929688	534.5725708007812	-468.0302734375	-1798.495483398438	680.76220703125	-497.9944763183594	-1904.205688476562	37.15567779541016	-454.4807434082031	-1887.927734375	289.6962585449219	-491.9588317871094	-1674.218017578125	36.8388557434082	-391.0179748535156	-1756.765869140625	40.12288284301758	-359.6716918945312	-1778.466796875	33.59020233154297	-477.4751281738281	-1974.321655273438	37.46399688720703	-392.7412109375	-1793.371826171875	538.52392578125	-177.5731811523438	-1761.38134765625	817.401611328125	-151.7741394042969	-1894.802490234375	28.54595565795898	-194.4248352050781	-1822.008178710938	406.9592895507812	-166.7485656738281	-1662.305786132812	40.9062614440918	-244.5110931396484	-1722.4560546875	31.68920516967773	-287.7004089355469	-1761.826538085938	36.41062164306641	-171.0182952880859	-1950.998168945312	32.56125259399414	-242.9799652099609	
4	0.03	-1896.936279296875	1127.018310546875	-270.3003234863281	-1890.469360351562	1127.436889648438	-404.6017150878906	-1900.337280273438	1159.030517578125	-340.3743896484375	-1684.63671875	1360.764282226562	-331.3359985351562	-1940.268676757812	1309.029296875	-343.9517822265625	-1903.829345703125	1600.749389648438	-356.3416442871094	-1720.439453125	1495.8359375	-337.1749572753906	-1963.607666015625	1418.108520507812	-271.3708190917969	-1905.99951171875	1580.578735351562	-458.1927185058594	-1815.654052734375	1567.773315429688	-521.8557739257812	-1829.075561523438	1434.460205078125	-590.840576171875	-1805.849731445312	1214.137939453125	-605.61474609375	-1876.536743164062	1201.092407226562	-554.9962768554688	-1703.63330078125	961.1934814453125	-546.5518188476562	-1781.39892578125	932.522216796875	-579.50732421875	-1786.231079101562	1098.867553710938	-604.6046142578125	-1689.171875	769.3931884765625	-516.3311767578125	-1749.422241210938	858.4068603515625	-575.2427368164062	-1684.215209960938	872.038818359375	-553.266845703125	-1859.48681640625	1584.663940429688	-172.2978973388672	-1878.988159179688	1510.927124023438	-109.2208251953125	-1882.1494140625	1215.369873046875	-86.83466339111328	-1885.7783203125	1213.984619140625	-184.5131988525391	-1729.333740234375	976.7685546875	-96.38053894042969	-1805.5703125	957.7247924804688	-67.269775390625	-1857.67919921875	1142.828979492188	-70.70719909667969	-1699.774047851562	782.1676025390625	-112.2585372924805	-1697.48681640625	868.4653930664062	-89.40866851806641	-1765.919311523438	859.3016357421875	-61.94022750854492	-1872.4140625	1770.99169921875	-272.4752197265625	-1721.1123046875	1844.751708984375	-416.2887878417969	-1713.759521484375	1852.275268554688	-287.0409240722656	-1886.024291992188	1765.944702148438	-406.5524291992188	-1795.33154296875	1036.050659179688	-506.1310119628906	-1777.408447265625	1031.0849609375	-147.0387420654297	-1692.35986328125	1103.8349609375	-195.8820190429688	-1688.232421875	1100.823852539062	-462.0986022949219	-1782.295288085938	534.5707397460938	-468.0542297363281	-1798.473510742188	680.7564697265625	-498.0105285644531	-1904.208129882812	37.15453338623047	-454.4817504882812	-1887.91845703125	289.6874084472656	-491.9644470214844	-1674.21923828125	36.83839416503906	-391.0196838378906	-1756.769165039062	40.12184906005859	-359.6775512695312	-1778.471923828125	33.59118270874023	-477.4779052734375	-1974.322509765625	37.46502304077148	-392.7418212890625	-1793.29638671875	538.5123901367188	-177.5926208496094	-1761.284423828125	817.4003295898438	-151.8094177246094	-1894.79931640625	28.54074668884277	-194.4251861572266	-1821.976318359375	406.95849609375	-166.7571563720703	-1662.303833007812	40.90780639648438	-244.5126190185547	-1722.4560546875	31.68593215942383	-287.7001647949219	-1761.82861328125	36.41050338745117	-171.0197906494141	-1950.9990234375	32.56081771850586	-242.9788055419922	
